# xmcd
#
# Track frame offsets: 
#        150
#        15184
#        30663
#        43840
#        67835
#        81043
#        96741
#        110812
#        124077
#        139776
#        150434
#        166641
#        187601
#        202075
#
# Disc length: 2938 seconds
#
# Revision: 0
# Processed by: cddbd v1.5.2PL0 Copyright (c) Steve Scherf et al.
# Submitted via: ExactAudioCopy v0.90b4
#
DISCID=ad0b780e
DTITLE=Cherryholmes - Cherryholmes II - Black and White
DYEAR=2007
DGENRE=Bluegrass
TTITLE0=You Don't Know What Love Is
TTITLE1=Heat of the Morning
TTITLE2=I Don't Know
TTITLE3=Black and White
TTITLE4=The Nine Yards
TTITLE5=Turn Me Down
TTITLE6=Darkness on the Delta
TTITLE7=Don't Give Your Heart to a Knoxville Girl
TTITLE8=My True Love
TTITLE9=Boot Strap Bill
TTITLE10=Tell Me Why
TTITLE11=Mansions of Kings
TTITLE12=I'll Never Shed Another Tear
TTITLE13=Greedy Hands
EXTD=
EXTT0=
EXTT1=
EXTT2=
EXTT3=
EXTT4=
EXTT5=
EXTT6=
EXTT7=
EXTT8=
EXTT9=
EXTT10=
EXTT11=
EXTT12=
EXTT13=
PLAYORDER=
